<svg width="10" height="9" viewBox="0 0 10 9" fill="none" xmlns="http://www.w3.org/2000/svg">
<path d="M7.90309 2.59998L1.98643 8.53331C1.85309 8.66665 1.69465 8.73331 1.51109 8.73331C1.32798 8.73331 1.16976 8.66665 1.03643 8.53331C0.903092 8.39998 0.836426 8.24153 0.836426 8.05798C0.836426 7.87487 0.903092 7.71665 1.03643 7.58331L6.96976 1.66665H1.90309C1.7142 1.66665 1.55576 1.60287 1.42776 1.47531C1.3002 1.34731 1.23643 1.18887 1.23643 0.99998C1.23643 0.811091 1.3002 0.652646 1.42776 0.524646C1.55576 0.397091 1.7142 0.333313 1.90309 0.333313H8.56976C8.75865 0.333313 8.91687 0.397091 9.04443 0.524646C9.17243 0.652646 9.23643 0.811091 9.23643 0.99998V7.66665C9.23643 7.85553 9.17243 8.01376 9.04443 8.14131C8.91687 8.26931 8.75865 8.33331 8.56976 8.33331C8.38087 8.33331 8.22265 8.26931 8.09509 8.14131C7.96709 8.01376 7.90309 7.85553 7.90309 7.66665V2.59998Z" fill="black"/>
</svg>
