<svg width="20" height="20" viewBox="0 0 20 20" fill="none" xmlns="http://www.w3.org/2000/svg">
<path d="M19.2643 13.15C19.9767 11.1104 19.9767 8.88956 19.2643 6.84997L19.2362 6.77497C18.5707 4.92129 17.349 3.31833 15.7381 2.18513C14.1273 1.05194 12.2058 0.443787 10.2362 0.443787C8.26669 0.443787 6.3452 1.05194 4.73432 2.18513C3.12344 3.31833 1.90176 4.92129 1.23623 6.77497L1.2081 6.84997C0.495737 8.88956 0.495737 11.1104 1.2081 13.15L1.23623 13.225C1.9008 15.079 3.12164 16.6826 4.73193 17.8166C6.34222 18.9507 8.26339 19.5598 10.2329 19.5608C12.2025 19.5619 14.1243 18.9547 15.7357 17.8224C17.3472 16.69 18.5697 15.0877 19.2362 13.2343L19.2643 13.15ZM7.5831 13.5625H12.8893C12.355 15.2781 11.4456 16.8156 10.2362 17.9968C9.02685 16.8156 8.11748 15.2781 7.5831 13.5625ZM7.30185 12.4375C6.96425 10.83 6.96425 9.16994 7.30185 7.56247H13.1706C13.5082 9.16994 13.5082 10.83 13.1706 12.4375H7.30185ZM1.79873 9.99997C1.79677 9.17436 1.91682 8.35299 2.15498 7.56247H6.14873C5.84865 9.17362 5.84865 10.8263 6.14873 12.4375H2.15498C1.91682 11.647 1.79677 10.8256 1.79873 9.99997ZM12.8893 6.43747H7.5831C8.11748 4.72185 9.02685 3.18435 10.2362 2.0031C11.4456 3.18435 12.355 4.72185 12.8893 6.43747ZM14.3331 7.56247H18.3175C18.7927 9.15272 18.7927 10.8472 18.3175 12.4375H14.3331C14.6206 10.8252 14.6206 9.17475 14.3331 7.56247ZM17.8862 6.43747H14.0706C13.5899 4.65898 12.6934 3.02019 11.455 1.65622C12.839 1.85839 14.1512 2.40109 15.2737 3.23561C16.3962 4.07013 17.2939 5.17034 17.8862 6.43747ZM9.01748 1.65622C7.77906 3.02019 6.88255 4.65898 6.40185 6.43747H2.58623C3.17853 5.17034 4.07624 4.07013 5.19875 3.23561C6.32126 2.40109 7.63343 1.85839 9.01748 1.65622ZM2.58623 13.5625H6.40185C6.88451 15.343 7.78069 16.9844 9.01748 18.3531C7.63359 18.1468 6.32221 17.6014 5.20012 16.7656C4.07803 15.9297 3.18008 14.8294 2.58623 13.5625ZM11.455 18.3531C12.6918 16.9844 13.5879 15.343 14.0706 13.5625H17.8862C17.2924 14.8294 16.3944 15.9297 15.2723 16.7656C14.1502 17.6014 12.8389 18.1468 11.455 18.3531Z" fill="black"/>
</svg>
