<svg width="16" height="13" viewBox="0 0 16 13" fill="none" xmlns="http://www.w3.org/2000/svg">
<path d="M2 12.5C1.5875 12.5 1.2345 12.3533 0.941 12.0597C0.647 11.7657 0.5 11.4125 0.5 11V2C0.5 1.5875 0.647 1.2345 0.941 0.941C1.2345 0.647 1.5875 0.5 2 0.5H14C14.4125 0.5 14.7657 0.647 15.0597 0.941C15.3533 1.2345 15.5 1.5875 15.5 2V11C15.5 11.4125 15.3533 11.7657 15.0597 12.0597C14.7657 12.3533 14.4125 12.5 14 12.5H2ZM14 3.5L8.39375 7.00625C8.33125 7.04375 8.2655 7.07175 8.1965 7.09025C8.128 7.10925 8.0625 7.11875 8 7.11875C7.9375 7.11875 7.872 7.10925 7.8035 7.09025C7.7345 7.07175 7.66875 7.04375 7.60625 7.00625L2 3.5V11H14V3.5ZM8 5.75L14 2H2L8 5.75ZM2 3.6875V2.58125V2.6V2.59025V3.6875Z" fill="white"/>
</svg>
