<svg width="14" height="15" viewBox="0 0 14 15" fill="none" xmlns="http://www.w3.org/2000/svg">
<path d="M13 7.5C12.8 7.5 12.622 7.428 12.466 7.284C12.3095 7.1405 12.2187 6.9625 12.1937 6.75C12.0312 5.5875 11.5407 4.59675 10.7222 3.77775C9.90325 2.95925 8.9125 2.46875 7.75 2.30625C7.5375 2.28125 7.3595 2.19375 7.216 2.04375C7.072 1.89375 7 1.7125 7 1.5C7 1.2875 7.075 1.10925 7.225 0.96525C7.375 0.82175 7.55 0.7625 7.75 0.7875C9.325 0.9625 10.6687 1.60625 11.7812 2.71875C12.8938 3.83125 13.5375 5.175 13.7125 6.75C13.7375 6.95 13.678 7.125 13.534 7.275C13.3905 7.425 13.2125 7.5 13 7.5ZM9.86875 7.5C9.70625 7.5 9.5625 7.44375 9.4375 7.33125C9.3125 7.21875 9.21875 7.06875 9.15625 6.88125C9.05625 6.51875 8.86575 6.19675 8.58475 5.91525C8.30325 5.63425 7.98125 5.44375 7.61875 5.34375C7.43125 5.28125 7.28125 5.1875 7.16875 5.0625C7.05625 4.9375 7 4.7875 7 4.6125C7 4.3625 7.0875 4.15925 7.2625 4.00275C7.4375 3.84675 7.63125 3.79375 7.84375 3.84375C8.54375 4.00625 9.147 4.3405 9.6535 4.8465C10.1595 5.353 10.4937 5.95625 10.6562 6.65625C10.7063 6.86875 10.65 7.0625 10.4875 7.2375C10.325 7.4125 10.1187 7.5 9.86875 7.5ZM12.9625 14.25C11.35 14.25 9.77825 13.8905 8.24725 13.1715C6.71575 12.453 5.3595 11.503 4.1785 10.3215C2.997 9.1405 2.047 7.78425 1.3285 6.25275C0.6095 4.72175 0.25 3.15 0.25 1.5375C0.25 1.3125 0.325 1.125 0.475 0.975C0.625 0.825 0.8125 0.75 1.0375 0.75H4.075C4.25 0.75 4.40625 0.80625 4.54375 0.91875C4.68125 1.03125 4.7625 1.175 4.7875 1.35L5.275 3.975C5.3 4.15 5.297 4.30925 5.266 4.45275C5.2345 4.59675 5.1625 4.725 5.05 4.8375L3.25 6.675C3.775 7.575 4.43125 8.41875 5.21875 9.20625C6.00625 9.99375 6.875 10.675 7.825 11.25L9.5875 9.4875C9.7 9.375 9.847 9.2905 10.0285 9.234C10.2095 9.178 10.3875 9.1625 10.5625 9.1875L13.15 9.7125C13.325 9.75 13.4688 9.83425 13.5812 9.96525C13.6937 10.0967 13.75 10.25 13.75 10.425V13.4625C13.75 13.6875 13.675 13.875 13.525 14.025C13.375 14.175 13.1875 14.25 12.9625 14.25ZM2.5375 5.25L3.775 4.0125L3.4375 2.25H1.7875C1.85 2.7625 1.9375 3.26875 2.05 3.76875C2.1625 4.26875 2.325 4.7625 2.5375 5.25ZM12.25 12.7125V11.0625L10.4875 10.6875L9.25 11.925C9.7375 12.1375 10.2312 12.3125 10.7313 12.45C11.2313 12.5875 11.7375 12.675 12.25 12.7125Z" fill="white"/>
</svg>
