<svg width="14" height="14" viewBox="0 0 14 14" fill="none" xmlns="http://www.w3.org/2000/svg">
<path d="M13 7C12.8 7 12.622 6.928 12.466 6.784C12.3095 6.6405 12.2187 6.4625 12.1937 6.25C12.0312 5.0875 11.5407 4.09675 10.7222 3.27775C9.90325 2.45925 8.9125 1.96875 7.75 1.80625C7.5375 1.78125 7.3595 1.69375 7.216 1.54375C7.072 1.39375 7 1.2125 7 1C7 0.7875 7.075 0.60925 7.225 0.46525C7.375 0.32175 7.55 0.2625 7.75 0.2875C9.325 0.4625 10.6687 1.10625 11.7812 2.21875C12.8938 3.33125 13.5375 4.675 13.7125 6.25C13.7375 6.45 13.678 6.625 13.534 6.775C13.3905 6.925 13.2125 7 13 7ZM9.86875 7C9.70625 7 9.5625 6.94375 9.4375 6.83125C9.3125 6.71875 9.21875 6.56875 9.15625 6.38125C9.05625 6.01875 8.86575 5.69675 8.58475 5.41525C8.30325 5.13425 7.98125 4.94375 7.61875 4.84375C7.43125 4.78125 7.28125 4.6875 7.16875 4.5625C7.05625 4.4375 7 4.2875 7 4.1125C7 3.8625 7.0875 3.65925 7.2625 3.50275C7.4375 3.34675 7.63125 3.29375 7.84375 3.34375C8.54375 3.50625 9.147 3.8405 9.6535 4.3465C10.1595 4.853 10.4937 5.45625 10.6562 6.15625C10.7063 6.36875 10.65 6.5625 10.4875 6.7375C10.325 6.9125 10.1187 7 9.86875 7ZM12.9625 13.75C11.35 13.75 9.77825 13.3905 8.24725 12.6715C6.71575 11.953 5.3595 11.003 4.1785 9.8215C2.997 8.6405 2.047 7.28425 1.3285 5.75275C0.6095 4.22175 0.25 2.65 0.25 1.0375C0.25 0.8125 0.325 0.625 0.475 0.475C0.625 0.325 0.8125 0.25 1.0375 0.25H4.075C4.25 0.25 4.40625 0.30625 4.54375 0.41875C4.68125 0.53125 4.7625 0.675 4.7875 0.85L5.275 3.475C5.3 3.65 5.297 3.80925 5.266 3.95275C5.2345 4.09675 5.1625 4.225 5.05 4.3375L3.25 6.175C3.775 7.075 4.43125 7.91875 5.21875 8.70625C6.00625 9.49375 6.875 10.175 7.825 10.75L9.5875 8.9875C9.7 8.875 9.847 8.7905 10.0285 8.734C10.2095 8.678 10.3875 8.6625 10.5625 8.6875L13.15 9.2125C13.325 9.25 13.4688 9.33425 13.5812 9.46525C13.6937 9.59675 13.75 9.75 13.75 9.925V12.9625C13.75 13.1875 13.675 13.375 13.525 13.525C13.375 13.675 13.1875 13.75 12.9625 13.75ZM2.5375 4.75L3.775 3.5125L3.4375 1.75H1.7875C1.85 2.2625 1.9375 2.76875 2.05 3.26875C2.1625 3.76875 2.325 4.2625 2.5375 4.75ZM12.25 12.2125V10.5625L10.4875 10.1875L9.25 11.425C9.7375 11.6375 10.2312 11.8125 10.7313 11.95C11.2313 12.0875 11.7375 12.175 12.25 12.2125Z" fill="black"/>
</svg>
